 <svg  version="1.0" xmlns="http://www.w3.org/2000/svg"  width="300.000000pt" height="300.000000pt" viewBox="0 0 300.000000 300.000000"  preserveAspectRatio="xMidYMid meet">  <g transform="translate(0.000000,300.000000) scale(0.100000,-0.100000)" fill="#d5651a" stroke="none"> <path d="M1496 2509 c-8 -162 3 -202 62 -228 36 -16 34 -3 32 -236 0 -98 -3 -112 -20 -124 -15 -10 -20 -25 -20 -57 l0 -44 50 0 50 0 0 218 0 219 24 12 c40 22 46 52 46 221 0 153 -1 160 -20 160 -19 0 -20 -7 -20 -131 0 -100 -3 -130 -12 -127 -9 3 -14 41 -16 131 -2 104 -5 127 -17 127 -12 0 -15 -22 -15 -130 0 -80 -4 -130 -10 -130 -6 0 -10 43 -10 108 0 119 -6 152 -26 152 -11 0 -14 -26 -14 -130 0 -80 -4 -130 -10 -130 -6 0 -10 50 -10 130 0 120 -1 130 -19 130 -16 0 -19 -13 -25 -141z"/> <path d="M1377 2575 c-4 -8 -28 -25 -55 -39 -54 -27 -71 -60 -52 -97 14 -25 31 -21 47 11 12 25 43 48 43 32 0 -5 -10 -24 -23 -43 -21 -31 -28 -34 -82 -39 -63 -5 -86 -24 -32 -27 17 -1 47 -4 65 -8 68 -15 112 47 112 160 0 61 -11 84 -23 50z"/> <path d="M1794 2543 c3 -10 12 -44 20 -74 10 -36 23 -60 41 -74 15 -11 44 -37 66 -59 22 -21 41 -37 43 -35 2 2 7 43 11 91 l7 88 -35 35 c-28 28 -43 35 -73 35 -22 0 -50 3 -63 7 -20 5 -22 3 -17 -14z m113 -80 c11 -27 17 -32 27 -24 7 6 16 8 19 4 11 -10 8 -51 -3 -58 -5 -3 -10 -1 -10 5 0 6 -11 15 -25 20 -17 6 -27 20 -31 39 -4 18 -14 31 -26 34 -11 3 -17 10 -14 15 12 19 48 -1 63 -35z"/> <path d="M2128 2546 c-26 -7 -55 -19 -64 -27 -25 -20 -44 -72 -44 -117 0 -45 -21 -102 -44 -122 -23 -18 -20 -30 9 -30 15 0 25 6 25 14 0 7 7 19 15 26 11 9 14 22 10 41 -8 37 14 100 35 96 10 -1 16 7 18 25 3 27 28 56 38 45 3 -3 1 -14 -5 -25 -6 -12 -11 -30 -11 -42 0 -13 -8 -24 -18 -27 -25 -6 -53 -55 -42 -73 8 -12 10 -12 15 2 4 10 22 22 41 28 41 14 52 31 63 107 4 32 12 66 16 76 8 20 6 20 -57 3z"/> <path d="M1162 2523 c-7 -2 -17 -14 -23 -26 -11 -20 -10 -20 17 3 16 14 31 26 33 28 7 4 -14 1 -27 -5z"/> <path d="M1074 2455 c6 -37 4 -51 -9 -65 -16 -17 -19 -18 -40 -4 -20 13 -24 13 -38 0 -18 -19 -12 -52 15 -70 15 -11 25 -11 56 -1 45 16 68 6 26 -11 -32 -13 -64 -44 -46 -44 6 0 14 5 17 10 3 6 16 10 29 10 26 0 46 17 46 41 0 21 -38 35 -53 20 -13 -13 -27 -14 -27 -2 0 18 70 81 90 81 12 0 18 -4 15 -10 -3 -5 -12 -10 -20 -10 -8 0 -17 -4 -20 -10 -4 -6 5 -10 20 -10 18 0 29 8 37 25 16 37 -2 53 -42 38 -28 -10 -29 -10 -32 20 -2 17 -9 33 -17 35 -11 4 -12 -5 -7 -43z m-39 -125 c-8 -13 -34 16 -35 40 0 11 6 9 21 -7 12 -11 18 -26 14 -33z"/> <path d="M1044 2456 c-3 -14 -1 -33 5 -43 8 -15 10 -10 11 25 0 47 -6 55 -16 18z"/> <path d="M960 2440 c0 -5 5 -10 10 -10 6 0 10 5 10 10 0 6 -4 10 -10 10 -5 0 -10 -4 -10 -10z"/> <path d="M1215 2440 c-3 -5 -1 -10 4 -10 6 0 11 5 11 10 0 6 -2 10 -4 10 -3 0 -8 -4 -11 -10z"/> <path d="M820 2396 c0 -17 33 -83 52 -103 23 -24 80 -31 108 -13 11 7 8 10 -16 10 -33 0 -63 23 -45 34 5 4 12 2 16 -4 10 -16 25 -11 25 8 0 27 -29 48 -73 56 -21 4 -45 10 -53 13 -8 3 -14 2 -14 -1z m69 -55 c9 -6 10 -11 2 -15 -13 -8 -31 1 -31 15 0 11 11 11 29 0z"/> <path d="M2260 2375 c-7 -8 -20 -15 -29 -15 -13 -1 -12 -3 4 -12 11 -6 26 -18 33 -26 7 -10 12 -11 12 -4 0 7 12 17 28 23 19 8 23 13 12 16 -8 3 -22 12 -31 20 -14 12 -18 11 -29 -2z"/> <path d="M2370 2326 c0 -9 5 -16 10 -16 6 0 10 4 10 9 0 6 -4 13 -10 16 -5 3 -10 -1 -10 -9z"/> <path d="M1170 2320 c0 -5 5 -10 11 -10 5 0 7 5 4 10 -3 6 -8 10 -11 10 -2 0 -4 -4 -4 -10z"/> <path d="M1329 2303 c-12 -15 -12 -16 6 -9 11 5 26 9 33 9 20 1 14 17 -7 17 -10 0 -25 -8 -32 -17z"/> <path d="M720 2300 c0 -5 5 -10 10 -10 6 0 10 5 10 10 0 6 -4 10 -10 10 -5 0 -10 -4 -10 -10z"/> <path d="M1270 2300 c0 -5 5 -10 11 -10 5 0 7 5 4 10 -3 6 -8 10 -11 10 -2 0 -4 -4 -4 -10z"/> <path d="M1795 2271 c-7 -12 12 -24 25 -16 11 7 4 25 -10 25 -5 0 -11 -4 -15 -9z"/> <path d="M2136 2257 c-4 -16 -16 -29 -33 -35 l-28 -9 23 -7 c13 -5 30 -22 37 -39 12 -28 14 -29 15 -9 0 14 12 29 33 42 29 18 30 20 9 20 -16 0 -27 9 -36 31 l-13 31 -7 -25z"/> <path d="M1206 2238 c-36 -51 -5 -119 65 -139 101 -31 197 62 143 139 -9 13 -26 22 -41 22 -22 0 -24 -2 -13 -15 17 -20 7 -30 -17 -17 -13 8 -22 7 -35 -5 -15 -13 -19 -13 -38 0 -21 14 -21 16 -3 26 15 9 14 10 -14 11 -22 0 -37 -7 -47 -22z"/> <path d="M2426 2251 c-4 -5 -2 -12 3 -15 5 -4 12 -2 15 3 4 5 2 12 -3 15 -5 4 -12 2 -15 -3z"/> <path d="M635 2240 c-3 -5 -2 -10 4 -10 5 0 13 5 16 10 3 6 2 10 -4 10 -5 0 -13 -4 -16 -10z"/> <path d="M790 2233 c-21 -8 -140 -126 -140 -139 0 -6 7 -17 15 -24 13 -10 19 -10 34 4 11 10 22 27 25 39 4 12 22 32 42 45 36 23 63 22 92 -1 10 -8 20 -4 39 15 l26 26 -29 15 c-36 18 -84 27 -104 20z"/> <path d="M2280 2200 c-10 -18 -1 -30 74 -100 58 -56 94 -99 117 -144 30 -58 35 -63 58 -56 36 9 37 29 2 97 -48 96 -175 223 -222 223 -10 0 -23 -9 -29 -20z"/> <path d="M1102 2201 c4 -13 18 -16 19 -4 0 4 -5 9 -11 12 -7 2 -11 -2 -8 -8z"/> <path d="M921 2159 c-18 -22 -30 -43 -27 -47 9 -8 86 69 80 80 -9 15 -20 8 -53 -33z"/> <path d="M957 2125 l-29 -36 29 -21 c52 -40 120 -119 158 -184 21 -35 44 -64 53 -64 24 0 8 102 -27 175 -31 63 -120 165 -143 165 -7 0 -26 -16 -41 -35z"/> <path d="M1735 2150 c4 -6 63 -10 145 -10 82 0 141 4 145 10 4 6 -47 10 -145 10 -98 0 -149 -4 -145 -10z"/> <path d="M2208 2107 c-38 -50 -41 -57 -28 -72 10 -12 5 -24 -26 -61 -21 -26 -46 -49 -56 -52 -10 -2 -15 -9 -11 -15 4 -6 0 -8 -9 -4 -11 4 -26 -9 -47 -39 l-32 -44 179 0 c145 0 182 3 192 14 6 8 27 20 46 26 19 6 34 17 34 23 0 41 -113 183 -186 235 l-32 22 -24 -33z m95 -99 c8 -12 7 -21 -2 -32 -18 -22 -38 -20 -51 5 -22 40 29 66 53 27z m-84 -72 c14 -16 5 -42 -16 -50 -29 -11 -58 35 -36 57 11 12 40 8 52 -7z m129 -15 c8 -4 12 -19 10 -32 -2 -18 -9 -24 -28 -24 -19 0 -26 6 -28 24 -3 20 11 41 28 41 3 0 11 -4 18 -9z"/> <path d="M2510 2130 c0 -7 3 -10 7 -7 3 4 3 10 0 14 -4 3 -7 0 -7 -7z"/> <path d="M1775 2111 c-54 -14 -5 -22 116 -19 67 2 114 7 114 13 0 12 -186 16 -230 6z"/> <path d="M777 2103 c-4 -3 -7 -14 -7 -23 0 -23 -42 -60 -69 -60 -22 0 -71 -40 -71 -58 0 -5 6 -15 14 -21 38 -32 201 106 182 154 -5 15 -37 20 -49 8z"/> <path d="M1163 2073 c4 -3 10 -3 14 0 3 4 0 7 -7 7 -7 0 -10 -3 -7 -7z"/> <path d="M1385 2043 c-22 -53 -54 -83 -86 -83 -27 0 -40 -15 -32 -37 8 -23 34 -13 74 28 l40 42 17 -24 c9 -13 16 -27 15 -31 -4 -12 27 -30 43 -24 22 8 14 50 -11 54 -38 7 -48 24 -41 69 7 53 1 55 -19 6z"/> <path d="M1770 2052 c0 -28 53 -72 93 -79 45 -7 91 11 112 43 32 50 25 54 -95 54 -100 0 -110 -2 -110 -18z"/> <path d="M2555 2060 c3 -5 8 -10 11 -10 2 0 4 5 4 10 0 6 -5 10 -11 10 -5 0 -7 -4 -4 -10z"/> <path d="M556 2051 c-4 -5 -2 -12 3 -15 5 -4 12 -2 15 3 4 5 2 12 -3 15 -5 4 -12 2 -15 -3z"/> <path d="M1230 2030 c0 -5 5 -10 10 -10 6 0 10 5 10 10 0 6 -4 10 -10 10 -5 0 -10 -4 -10 -10z"/> <path d="M910 1956 c-32 -44 -92 -98 -134 -123 -17 -10 8 -12 137 -13 l158 0 -7 23 c-13 43 -33 72 -76 115 l-44 42 -34 -44z"/> <path d="M2010 1974 c0 -8 5 -12 10 -9 6 4 8 11 5 16 -9 14 -15 11 -15 -7z"/> <path d="M516 1952 c-4 -13 -20 -28 -34 -34 -27 -12 -27 -12 -4 -16 15 -2 29 -16 37 -35 11 -26 14 -28 15 -11 0 24 15 40 45 46 18 4 17 6 -8 16 -15 7 -31 22 -36 34 l-8 23 -7 -23z"/> <path d="M800 1955 c-6 -7 -35 -25 -63 -40 -28 -14 -43 -25 -33 -25 25 0 67 24 95 54 14 14 22 26 19 26 -3 0 -11 -7 -18 -15z"/> <path d="M1350 1935 c-17 -20 -5 -45 20 -45 11 0 23 7 26 15 6 15 -11 45 -26 45 -4 0 -13 -7 -20 -15z"/> <path d="M1965 1930 c-9 -10 -37 -27 -61 -36 -41 -16 -44 -16 -70 5 -15 11 -40 21 -56 21 -16 0 -38 5 -50 11 -18 10 -19 8 -13 -13 22 -74 78 -114 135 -98 28 8 147 116 138 125 -2 3 -13 -4 -23 -15z m-145 -60 c31 -17 32 -19 12 -20 -27 0 -62 17 -62 30 0 14 10 12 50 -10z"/> <path d="M2600 1936 c0 -9 5 -16 10 -16 6 0 10 4 10 9 0 6 -4 13 -10 16 -5 3 -10 -1 -10 -9z"/> <path d="M1310 1865 c-10 -12 -10 -18 0 -30 16 -19 39 -19 46 0 6 15 -11 45 -26 45 -4 0 -13 -7 -20 -15z"/> <path d="M1387 1867 c-8 -21 8 -39 29 -35 27 5 25 42 -2 46 -12 2 -24 -3 -27 -11z"/> <path d="M2576 1851 c-4 -5 -2 -12 3 -15 5 -4 12 -2 15 3 4 5 2 12 -3 15 -5 4 -12 2 -15 -3z"/> <path d="M605 1840 c3 -5 10 -10 16 -10 5 0 9 5 9 10 0 6 -7 10 -16 10 -8 0 -12 -4 -9 -10z"/> <path d="M502 1761 c-8 -5 -12 -17 -10 -27 3 -18 35 -19 1056 -22 970 -2 1053 -1 1059 14 17 44 28 44 -1061 44 -567 0 -1037 -4 -1044 -9z"/> <path d="M1332 1368 l3 -283 62 -3 62 -3 3 126 3 127 128 -147 127 -147 0 291 0 291 -65 0 -64 0 -3 -121 -3 -120 -120 135 c-65 75 -123 136 -127 136 -5 0 -7 -127 -6 -282z"/> <path d="M450 1625 c0 -10 11 -15 35 -15 24 0 35 5 35 15 0 10 -11 15 -35 15 -24 0 -35 -5 -35 -15z"/> <path d="M585 1621 c-3 -5 -1 -12 5 -16 5 -3 10 1 10 9 0 18 -6 21 -15 7z"/> <path d="M650 1350 l0 -270 60 0 60 0 2 167 3 168 74 -88 c40 -48 76 -87 80 -87 3 0 38 38 76 85 l70 84 3 -164 2 -165 65 0 65 0 0 270 0 270 -64 0 -65 0 -73 -95 c-40 -52 -76 -93 -80 -92 -4 1 -40 43 -81 92 l-73 90 -62 3 -62 3 0 -271z"/> <path d="M1899 1597 c-55 -37 -59 -54 -59 -247 0 -158 2 -178 20 -208 30 -49 72 -62 197 -62 125 0 167 15 195 71 25 47 26 354 3 400 -30 57 -66 69 -201 69 -109 0 -124 -2 -155 -23z m241 -242 l0 -146 -87 3 -88 3 -2 80 c-2 44 0 108 3 143 l6 62 84 0 84 0 0 -145z"/> <path d="M2024 1366 c-8 -8 -7 -15 2 -24 17 -15 21 -15 27 2 8 20 -15 37 -29 22z"/> <path d="M2371 1601 c-6 -11 -11 -31 -11 -45 0 -26 1 -26 81 -26 l80 0 -3 43 -3 42 -67 3 c-58 3 -68 0 -77 -17z"/> <path d="M2362 1465 c-7 -14 -12 -44 -12 -65 l0 -40 90 0 90 0 0 39 c0 22 -4 51 -10 65 -9 24 -14 26 -78 26 -64 0 -70 -2 -80 -25z"/> <path d="M450 1425 c0 -12 14 -15 70 -15 56 0 70 3 70 15 0 12 -14 15 -70 15 -56 0 -70 -3 -70 -15z"/> <path d="M2355 1331 c-3 -2 -5 -42 -5 -88 l0 -83 90 0 90 0 0 90 0 90 -85 -2 c-47 -1 -88 -4 -90 -7z m105 -29 c0 -14 -39 -46 -47 -39 -3 4 2 16 12 27 19 21 35 26 35 12z m20 -45 c0 -17 -38 -53 -46 -44 -7 7 25 57 37 57 5 0 9 -6 9 -13z m-70 -14 c0 -5 -4 -15 -10 -23 -11 -18 -25 -7 -17 15 6 15 27 21 27 8z"/> <path d="M450 1240 c0 -7 3 -10 7 -7 3 4 3 10 0 14 -4 3 -7 0 -7 -7z"/> <path d="M2580 1215 c0 -10 11 -15 35 -15 24 0 35 5 35 15 0 10 -11 15 -35 15 -24 0 -35 -5 -35 -15z"/> <path d="M2362 1132 c-18 -6 -14 -47 6 -65 13 -12 37 -17 79 -17 68 0 86 13 81 56 -3 27 -4 28 -79 29 -42 1 -81 -1 -87 -3z"/> <path d="M450 1120 c0 -6 30 -10 70 -10 40 0 70 4 70 10 0 6 -30 10 -70 10 -40 0 -70 -4 -70 -10z"/> <path d="M2580 1120 c0 -5 16 -10 35 -10 19 0 35 5 35 10 0 6 -16 10 -35 10 -19 0 -35 -4 -35 -10z"/> <path d="M507 993 c-12 -3 -17 -12 -15 -26 l3 -22 1053 -3 c970 -2 1053 -1 1059 14 4 10 0 22 -10 29 -12 8 -277 11 -1044 12 -565 1 -1036 -1 -1046 -4z"/> <path d="M1361 883 c-19 -18 -21 -23 -8 -23 9 0 20 -8 26 -17 9 -17 11 -17 23 -2 7 9 19 18 26 21 8 2 3 11 -15 23 l-28 21 -24 -23z"/> <path d="M2490 890 c0 -5 5 -10 10 -10 6 0 10 5 10 10 0 6 -4 10 -10 10 -5 0 -10 -4 -10 -10z"/> <path d="M1888 865 c-20 -13 -39 -29 -42 -34 -9 -14 33 -41 77 -48 26 -4 36 -10 35 -21 -4 -18 12 -25 31 -13 24 15 3 49 -42 64 l-42 15 30 7 c28 8 54 30 55 48 0 16 -67 4 -102 -18z"/> <path d="M2183 864 l-25 -25 -15 21 c-13 19 -21 20 -71 14 -66 -7 -93 -24 -40 -24 20 0 46 -8 61 -20 14 -11 34 -20 45 -20 11 0 39 -9 63 -20 53 -24 79 -25 79 -5 0 10 -10 15 -33 15 -43 0 -51 9 -31 32 11 11 25 16 38 12 12 -3 34 2 50 10 27 14 27 15 8 25 -39 21 -100 13 -129 -15z"/> <path d="M626 863 c-4 -10 1 -27 14 -43 11 -14 31 -48 44 -76 13 -27 35 -63 48 -80 14 -16 27 -37 31 -46 8 -22 23 -23 31 -2 4 10 -8 39 -30 73 -20 31 -53 85 -74 121 -40 69 -54 81 -64 53z"/> <path d="M690 875 c0 -3 16 -38 36 -78 31 -62 115 -167 134 -167 24 0 178 229 163 243 -7 8 -333 10 -333 2z m180 -45 c0 -24 -26 -38 -42 -22 -16 16 -2 42 22 42 13 0 20 -7 20 -20z m84 12 c9 -14 -12 -35 -28 -29 -23 9 -20 37 3 37 11 0 22 -4 25 -8z m-164 -32 c0 -21 -24 -28 -35 -10 -8 14 3 30 21 30 8 0 14 -9 14 -20z m138 -37 c4 -25 -22 -37 -38 -17 -10 11 -10 17 0 29 17 20 34 14 38 -12z m-78 -9 c11 -12 10 -18 -3 -32 -16 -15 -18 -15 -34 0 -13 14 -14 20 -3 32 7 9 16 16 20 16 4 0 13 -7 20 -16z"/> <path d="M1119 850 c-40 -21 -105 -109 -113 -155 -3 -16 1 -43 8 -60 13 -30 13 -29 12 22 -1 38 4 59 20 80 27 36 83 75 103 71 21 -4 17 -22 -6 -27 -27 -5 -45 -23 -35 -33 15 -15 98 -11 124 6 13 8 31 29 41 45 l18 31 -33 20 c-41 25 -92 25 -139 0z m111 -35 c0 -8 -6 -15 -14 -15 -20 0 -29 17 -14 23 22 9 28 7 28 -8z"/> <path d="M1744 849 c-10 -17 13 -36 27 -22 12 12 4 33 -11 33 -5 0 -12 -5 -16 -11z"/> <path d="M2363 820 c-84 -51 -82 -164 3 -205 72 -34 152 15 161 98 6 53 -7 81 -50 107 -41 25 -74 25 -114 0z m92 -100 c0 -12 -9 -29 -20 -36 -18 -12 -24 -11 -43 2 -12 8 -22 24 -22 34 0 10 10 26 22 34 19 13 25 14 43 2 11 -7 20 -24 20 -36z"/> <path d="M1528 800 c-9 -13 -24 -20 -45 -20 -22 0 -37 -7 -45 -20 -7 -11 -21 -20 -32 -20 -11 0 -28 -7 -38 -17 -10 -9 -28 -21 -40 -27 -13 -6 -24 -19 -26 -27 -4 -20 22 -26 146 -35 69 -5 99 -4 118 6 20 11 29 12 44 2 29 -18 64 -14 78 8 15 24 30 25 52 5 15 -13 22 -13 68 0 29 9 52 18 52 20 0 15 -35 34 -54 29 -17 -4 -25 1 -34 20 -6 14 -20 27 -29 28 -10 0 -23 2 -30 2 -7 1 -19 10 -26 21 -10 13 -26 19 -50 18 -22 -1 -38 4 -41 13 -8 21 -54 17 -68 -6z m73 -81 c26 -26 17 -37 -15 -19 -15 7 -38 10 -55 7 -34 -7 -41 6 -13 22 28 17 60 13 83 -10z m89 6 c7 -9 10 -18 7 -21 -7 -8 -67 18 -67 28 0 14 47 8 60 -7z m-195 -45 c16 -18 16 -20 2 -20 -9 0 -27 5 -41 11 -20 10 -30 9 -49 -4 -30 -20 -43 -10 -20 15 22 25 84 24 108 -2z"/> <path d="M2026 761 c-4 -6 4 -25 18 -41 27 -33 42 -101 32 -147 -8 -35 -61 -70 -70 -46 -14 35 -18 121 -7 141 18 34 -2 26 -22 -8 -15 -25 -17 -42 -11 -100 5 -57 3 -74 -11 -96 -16 -26 -16 -26 7 -19 12 4 34 15 48 25 14 9 40 21 57 24 38 9 83 48 83 74 0 10 -9 27 -20 37 -12 10 -20 31 -20 49 -1 36 -72 126 -84 107z"/> <path d="M2160 710 c0 -5 18 -21 40 -35 21 -13 44 -33 50 -44 15 -28 12 -61 -5 -67 -25 -10 -44 15 -47 59 -4 52 -23 47 -22 -6 1 -44 32 -81 78 -91 l28 -7 -4 61 c-4 55 -8 64 -46 100 -39 38 -72 52 -72 30z"/> <path d="M1255 680 c3 -5 8 -10 11 -10 2 0 4 5 4 10 0 6 -5 10 -11 10 -5 0 -7 -4 -4 -10z"/> <path d="M1040 660 c0 -5 10 -10 23 -10 13 0 31 -6 41 -13 17 -13 16 -14 -13 -27 -69 -28 -103 -107 -58 -134 15 -9 22 -7 37 12 14 17 25 21 44 16 30 -7 34 -21 9 -27 -17 -4 -17 -4 0 -12 23 -10 50 15 41 38 -4 11 -17 17 -36 17 -57 0 -86 32 -53 60 12 10 15 10 15 -4 0 -19 31 -21 48 -4 18 18 14 63 -6 81 -20 18 -92 23 -92 7z m6 -168 c-12 -12 -18 8 -10 35 l8 28 4 -28 c2 -16 1 -31 -2 -35z"/> <path d="M1200 651 c0 -10 15 -26 35 -37 19 -10 35 -23 35 -28 0 -5 11 -24 25 -42 14 -18 25 -36 25 -39 0 -4 21 -27 48 -52 l47 -45 170 4 c181 5 207 11 251 60 23 25 58 88 52 94 -2 2 -33 -6 -68 -17 -69 -21 -270 -44 -302 -33 -11 3 -18 13 -16 22 3 14 22 18 118 23 161 8 290 48 290 89 0 19 -1 19 -34 -1 -120 -71 -523 -70 -643 1 -31 18 -33 18 -33 1z"/> <path d="M970 640 c0 -7 3 -10 7 -7 3 4 3 10 0 14 -4 3 -7 0 -7 -7z"/> <path d="M922 588 c-7 -9 -7 -18 2 -30 11 -15 13 -15 24 2 14 23 -9 48 -26 28z"/> <path d="M1080 435 c0 -8 4 -15 10 -15 5 0 7 7 4 15 -4 8 -8 15 -10 15 -2 0 -4 -7 -4 -15z"/> </g> </svg> 