<?xml version="1.0" standalone="no"?>
<!DOCTYPE svg PUBLIC "-//W3C//DTD SVG 20010904//EN"
 "http://www.w3.org/TR/2001/REC-SVG-20010904/DTD/svg10.dtd">
<svg version="1.0" xmlns="http://www.w3.org/2000/svg"
 width="900.000000pt" height="900.000000pt" viewBox="0 0 900.000000 900.000000"
 preserveAspectRatio="xMidYMid meet">
<metadata>
Created by potrace 1.10, written by Peter Selinger 2001-2011
</metadata>
<g transform="translate(0.000000,900.000000) scale(0.100000,-0.100000)"
fill="#bc4410" stroke="none">
<path d="M0 4500 l0 -4500 4500 0 4500 0 0 4500 0 4500 -4500 0 -4500 0 0
-4500z m4600 3052 c4 -326 7 -384 20 -392 48 -31 50 -21 52 391 l3 384 45 0
45 0 7 -55 c3 -30 6 -202 7 -381 1 -349 3 -359 50 -344 20 6 21 14 23 393 l3
387 45 0 45 0 3 -376 c2 -365 3 -377 23 -395 15 -14 24 -16 37 -7 15 9 17 48
22 394 l5 384 55 0 55 0 3 -475 c2 -432 1 -479 -15 -524 -22 -59 -72 -113
-138 -148 l-50 -26 -3 -656 -2 -657 -141 4 c-77 3 -143 8 -146 11 -3 3 -5 60
-4 128 2 129 12 158 52 158 10 0 29 10 44 23 l25 22 1 493 c0 272 -2 496 -5
500 -7 6 -63 28 -113 43 -45 14 -125 94 -154 154 l-24 50 4 445 c1 245 5 449
8 453 3 4 28 7 56 5 l52 -3 5 -383z m-415 182 c13 -73 6 -335 -11 -394 -39
-134 -95 -212 -181 -250 -71 -31 -136 -27 -221 16 -63 30 -79 34 -117 28 -25
-3 -48 -10 -51 -15 -8 -14 -44 -10 -44 5 0 7 10 26 22 41 l22 28 120 -6 c165
-7 181 -3 235 52 51 51 117 172 107 196 -9 25 -36 17 -77 -24 -28 -28 -39 -47
-39 -69 0 -21 -9 -38 -31 -56 -94 -79 -169 30 -124 180 12 41 23 54 62 80 27
17 66 39 88 49 22 10 54 25 70 33 36 17 115 92 115 107 0 15 21 35 36 35 6 0
15 -16 19 -36z m1369 -84 c164 -12 205 -28 280 -104 71 -71 96 -138 96 -259
-1 -57 -7 -107 -16 -132 -9 -23 -17 -86 -19 -149 -3 -80 -8 -113 -19 -124 -14
-14 -16 -13 -21 4 -12 36 -22 48 -56 67 -40 22 -49 34 -49 64 0 22 -64 83 -87
83 -24 0 -97 44 -133 80 -19 19 -44 60 -56 90 -34 89 -54 154 -54 174 0 26
-29 121 -52 172 -24 54 -23 57 15 50 17 -3 94 -10 171 -16z m1006 4 c0 -9 -7
-29 -15 -45 -8 -16 -21 -41 -29 -56 -7 -16 -17 -73 -21 -128 -11 -157 -35
-240 -86 -299 -21 -25 -62 -44 -139 -67 -45 -14 -60 -26 -93 -74 -15 -20 -22
-24 -32 -15 -36 30 -23 75 48 181 11 16 31 29 51 33 55 11 79 45 81 121 2 54
8 75 34 117 53 85 17 109 -54 34 -41 -42 -55 -79 -55 -147 0 -35 -24 -56 -44
-39 -8 6 -25 10 -38 8 -17 -2 -24 -11 -29 -38 -3 -19 -18 -61 -32 -93 -15 -32
-29 -79 -33 -105 -5 -42 -3 -50 20 -71 14 -14 26 -27 26 -31 0 -3 -22 -29 -49
-58 -34 -36 -50 -63 -54 -90 -7 -38 -7 -38 -69 -49 -50 -8 -66 -8 -77 3 -12
11 -4 23 52 80 53 53 67 74 67 97 0 16 13 51 29 76 27 44 28 54 34 191 5 143
11 174 49 257 24 53 87 116 141 141 60 27 148 52 188 52 19 1 48 7 64 15 41
18 65 18 65 -1z m-3010 -83 c0 -5 -9 -13 -20 -16 -11 -4 -47 -31 -79 -61 -61
-56 -79 -67 -62 -36 35 64 161 152 161 113z m-276 -103 c11 -16 16 -46 16
-105 0 -48 4 -83 10 -83 5 0 32 14 58 30 75 46 143 36 165 -23 9 -24 -20 -96
-52 -130 -34 -35 -126 -51 -137 -23 -7 19 17 42 56 53 32 8 69 35 70 49 1 34
-87 25 -145 -15 -25 -16 -44 -39 -49 -58 -7 -21 -23 -39 -48 -53 -40 -22 -68
-64 -68 -100 0 -27 25 -26 62 5 68 57 168 10 168 -80 0 -66 -53 -105 -143
-105 -48 0 -60 -4 -97 -35 -41 -34 -60 -37 -60 -10 0 19 88 94 119 101 65 14
121 37 121 48 0 43 -130 31 -216 -19 -42 -25 -47 -25 -63 -11 -10 9 -23 16
-29 16 -17 0 -76 80 -91 123 -22 67 20 137 84 137 26 0 78 -30 102 -59 l22
-26 50 49 c57 57 66 81 51 151 -29 130 -31 169 -13 182 24 19 40 16 57 -9z
m-106 -131 c1 -45 4 -93 5 -107 1 -16 -3 -25 -12 -25 -19 0 -51 64 -51 103 0
37 37 128 48 117 4 -4 8 -43 10 -88z m-250 4 c8 -4 12 -19 10 -32 -4 -33 -53
-40 -63 -9 -11 36 22 61 53 41z m753 -24 c-1 -4 -1 -14 -1 -22 0 -8 -9 -15
-20 -15 -22 0 -26 20 -8 38 13 13 30 12 29 -1z m-1173 -135 c15 -11 61 -25
102 -32 41 -7 93 -16 116 -19 82 -14 148 -85 148 -160 1 -59 -22 -66 -69 -21
l-33 32 -16 -25 c-21 -31 -14 -49 35 -83 35 -24 45 -26 95 -21 31 3 62 3 70 0
23 -9 16 -23 -11 -23 -14 0 -38 -8 -52 -17 -20 -14 -47 -18 -108 -18 -69 1
-86 4 -121 27 -81 52 -132 135 -189 305 -15 46 -14 73 2 73 2 0 17 -8 31 -18z
m4332 -31 c0 -25 55 -72 96 -82 24 -6 44 -16 44 -21 0 -5 -24 -20 -54 -33 -31
-14 -63 -37 -76 -56 l-23 -31 -31 36 c-17 20 -56 48 -86 62 -42 19 -51 27 -40
34 8 6 23 10 33 10 29 0 72 30 91 61 16 27 46 40 46 20z m318 -163 c18 -18 14
-46 -8 -58 -27 -14 -40 -5 -40 29 0 41 22 55 48 29z m-3610 -30 c14 -14 16
-38 3 -38 -12 0 -41 29 -41 41 0 13 24 11 38 -3z m595 -21 c8 -23 -9 -40 -33
-34 -26 7 -70 -8 -85 -28 -14 -17 -47 -23 -52 -9 -2 7 11 28 30 48 31 32 40
36 85 36 32 0 52 -5 55 -13z m-1923 -47 c0 -27 -3 -30 -30 -30 -27 0 -30 3
-30 30 0 27 3 30 30 30 27 0 30 -3 30 -30z m1634 1 c13 -14 14 -20 4 -28 -19
-16 -58 2 -58 27 0 26 31 27 54 1z m2596 -94 c1 -45 32 -105 66 -128 16 -10
46 -19 67 -19 53 0 48 -23 -10 -44 -27 -10 -55 -21 -63 -25 -22 -11 -60 -82
-60 -111 0 -14 -4 -32 -10 -40 -10 -16 -8 -20 -29 57 -16 58 -47 91 -110 117
-29 13 -52 27 -52 32 0 5 18 11 39 14 75 11 103 47 138 178 7 24 24 1 24 -31z
m-988 16 c22 -20 23 -31 1 -55 -21 -23 -45 -23 -67 1 -17 18 -17 21 -1 45 20
30 41 33 67 9z m-1663 -39 c41 -8 40 -30 -3 -48 -48 -20 -51 -33 -14 -52 18
-9 44 -25 57 -35 31 -25 35 -24 70 10 52 51 59 52 118 20 60 -33 78 -36 87
-14 8 22 -4 46 -36 75 -35 31 -35 37 1 45 72 16 148 -29 190 -112 30 -60 29
-148 -3 -211 -24 -47 -89 -115 -135 -140 -40 -23 -129 -42 -196 -42 -213 0
-360 119 -360 290 0 144 99 239 224 214z m3535 -36 c8 -13 6 -22 -9 -37 -17
-20 -19 -20 -37 -5 -21 20 -23 35 -6 52 16 16 38 12 52 -10z m-5361 -5 c11
-10 -34 -53 -55 -53 -22 0 -22 4 -2 35 16 24 43 33 57 18z m547 -43 c30 -6 69
-18 85 -25 98 -44 148 -71 153 -83 4 -13 -123 -142 -141 -142 -5 0 -23 11 -40
24 -36 28 -131 66 -163 66 -12 0 -42 -18 -67 -40 -25 -22 -66 -50 -91 -61 -57
-25 -102 -81 -97 -121 2 -23 -7 -39 -52 -83 -30 -30 -63 -55 -73 -55 -29 0
-84 60 -84 91 0 31 43 87 116 150 26 23 75 71 108 108 106 119 153 158 209
174 29 8 59 14 67 12 8 -2 40 -8 70 -15z m4457 -43 c245 -139 512 -431 641
-702 65 -136 66 -140 63 -200 -1 -23 -47 -51 -96 -58 -16 -3 -39 -8 -50 -11
-17 -6 -28 9 -79 112 -55 114 -83 156 -193 300 -67 88 -271 285 -375 362 -49
35 -88 69 -88 76 0 6 9 23 20 37 11 14 20 30 20 35 0 6 14 22 31 36 33 28 71
33 106 13z m-3609 -47 c17 -28 -11 -74 -37 -60 -34 18 -42 35 -25 58 19 27 45
28 62 2z m-451 -22 c13 -12 23 -25 23 -28 0 -4 -49 -58 -110 -119 -85 -87
-115 -112 -132 -109 -44 6 -32 39 48 128 42 47 83 96 92 110 31 46 45 50 79
18z m211 -205 c194 -192 277 -320 366 -560 22 -61 45 -182 51 -269 6 -89 3
-94 -53 -94 -27 0 -72 35 -72 55 0 21 -86 174 -158 280 -79 118 -277 323 -399
415 -40 30 -73 59 -73 63 0 5 27 36 60 70 33 34 60 65 60 69 0 4 14 23 31 43
49 55 63 49 187 -72z m2952 85 c0 -5 -5 -18 -10 -29 -10 -18 -24 -19 -363 -18
-194 1 -386 4 -427 8 -67 5 -75 8 -78 28 l-3 22 412 1 c227 0 414 2 416 4 7 7
53 -7 53 -16z m863 -242 c42 -37 102 -99 134 -138 32 -39 65 -78 74 -87 27
-26 130 -190 166 -262 45 -91 43 -102 -14 -129 -121 -55 -191 -93 -215 -115
l-27 -25 -522 0 c-287 0 -524 2 -527 4 -3 3 27 47 65 98 98 129 129 163 137
149 9 -14 46 -15 46 -1 0 6 -4 10 -10 10 -5 0 -10 7 -10 15 0 12 8 14 39 9 34
-5 41 -3 52 17 6 13 37 49 67 79 54 53 172 204 172 219 0 4 -13 20 -30 36 -16
16 -30 36 -30 45 0 15 53 94 87 128 7 7 13 16 13 20 0 4 13 21 28 39 15 17 35
43 46 57 l18 25 83 -63 c46 -34 117 -93 158 -130z m617 169 c0 -28 -24 -34
-34 -9 -8 20 1 34 20 34 8 0 14 -10 14 -25z m-1542 -71 c2 -11 -6 -28 -17 -38
-19 -17 -42 -18 -365 -14 -361 4 -376 6 -376 49 0 23 37 25 445 25 305 -1 310
-1 313 -22z m-3554 -16 c23 -32 20 -71 -11 -136 -69 -147 -403 -395 -493 -367
-11 4 -30 16 -40 28 -68 72 66 227 195 227 19 0 53 9 75 21 53 28 120 106 120
141 0 69 34 108 95 108 34 0 47 -5 59 -22z m1071 -82 c0 -22 -14 -29 -34 -17
-19 12 -6 43 16 39 10 -2 18 -12 18 -22z m695 -26 c0 -17 -6 -43 -14 -58 -23
-46 -29 -106 -13 -143 24 -57 61 -89 103 -89 51 0 104 -34 105 -68 2 -52 -2
-67 -27 -89 -37 -33 -71 -29 -110 13 -25 26 -33 41 -28 58 4 17 -5 35 -35 70
-23 26 -41 54 -41 62 0 27 -28 14 -79 -36 -27 -27 -63 -56 -79 -64 -17 -9 -35
-29 -41 -48 -20 -56 -48 -78 -102 -78 -44 0 -50 3 -64 30 -19 37 -19 55 0 84
13 19 28 25 85 30 73 8 122 34 182 100 27 29 98 165 98 187 0 19 34 69 47 69
8 0 13 -12 13 -30z m3480 -21 c0 -25 -22 -24 -39 2 -10 18 -11 23 0 30 17 10
39 -8 39 -32z m-1742 22 c27 -17 -19 -129 -80 -191 -33 -34 -84 -70 -101 -70
-7 0 -19 -6 -25 -12 -9 -9 -46 -13 -110 -13 -86 0 -103 3 -155 28 -97 48 -173
137 -192 224 l-6 32 63 4 c135 7 594 6 606 -2z m-4243 -51 c17 -19 17 -21 0
-40 -24 -27 -43 -25 -57 5 -8 19 -8 28 2 40 17 20 33 19 55 -5z m2019 -46 c8
-21 -11 -44 -36 -44 -21 0 -33 22 -24 45 7 20 52 19 60 -1z m-875 -140 c66
-48 198 -192 255 -278 51 -77 56 -88 50 -124 -5 -31 -3 -40 10 -45 9 -4 16
-15 16 -25 0 -17 -12 -20 -122 -25 -188 -11 -761 -8 -778 3 -8 5 -10 10 -5 10
14 0 112 66 172 115 113 93 253 245 343 374 18 26 16 26 59 -5z m3206 -20 c15
-11 17 -18 9 -32 -17 -26 -51 -27 -59 -2 -6 19 9 50 24 50 3 0 15 -7 26 -16z
m-4485 -67 c0 -54 50 -111 106 -121 17 -4 39 -13 50 -21 16 -13 17 -16 4 -25
-8 -5 -30 -10 -49 -10 -49 0 -109 -64 -113 -120 -2 -22 -7 -40 -12 -41 -5 0
-18 26 -28 58 -23 68 -56 99 -115 108 -24 3 -43 10 -43 15 0 11 52 40 72 40 7
1 25 11 39 23 24 20 31 34 59 110 13 35 30 26 30 -16z m870 19 c0 -19 -126
-132 -175 -157 -22 -11 -47 -24 -55 -28 -62 -34 -82 -41 -108 -41 -38 0 -50
16 -20 25 61 17 211 102 273 155 73 63 85 69 85 46z m1700 -76 c69 -49 35
-150 -50 -150 -83 0 -117 99 -53 150 33 25 67 25 103 0z m1810 -10 c0 -22
-104 -115 -181 -160 -40 -24 -63 -46 -83 -82 -51 -91 -167 -136 -291 -113 -76
15 -113 34 -156 82 -49 54 -119 205 -119 256 0 21 -3 22 56 -7 36 -17 73 -25
139 -29 103 -6 152 -26 203 -81 37 -41 39 -41 113 -21 80 23 169 71 240 131
63 54 79 59 79 24z m1878 18 c27 -27 2 -75 -32 -62 -16 6 -23 54 -9 67 10 11
28 8 41 -5z m-3545 -209 c21 -26 22 -77 1 -107 -23 -34 -96 -31 -129 4 -33 36
-31 65 5 104 27 29 35 32 68 27 20 -4 45 -16 55 -28z m-280 -1 c46 -26 57 -41
57 -76 0 -79 -84 -110 -141 -53 -39 39 -38 75 2 112 34 32 49 35 82 17z m3756
-69 c11 -19 10 -24 -8 -43 l-21 -20 -22 21 c-21 22 -21 23 -3 43 23 26 37 25
54 -1z m-5909 -4 c6 -8 10 -22 8 -32 -4 -24 -47 -24 -62 0 -9 15 -7 21 8 33
25 18 31 18 46 -1z m5893 -256 c56 -29 73 -93 37 -139 l-19 -25 -3103 -3
c-1707 -1 -3118 0 -3136 3 -47 9 -72 37 -72 83 0 45 6 54 45 75 27 15 304 16
3128 17 2263 0 3104 -3 3120 -11z m-3653 -426 c41 -47 93 -105 115 -128 67
-72 107 -116 185 -205 41 -47 79 -90 84 -96 11 -11 75 -83 185 -209 34 -38 61
-73 61 -77 0 -4 7 -8 15 -8 13 0 15 49 17 358 l3 357 190 0 190 0 3 -850 c1
-467 0 -857 -4 -865 -4 -12 -10 -10 -26 10 -17 21 -122 140 -153 174 -5 6 -34
40 -64 76 -30 36 -60 70 -66 75 -13 12 -202 231 -376 435 -40 47 -75 84 -78
83 -3 -2 -8 -171 -11 -375 l-5 -373 -174 -3 c-119 -2 -178 1 -187 9 -12 10
-14 150 -14 855 0 797 1 844 18 844 9 -1 51 -39 92 -87z m-2544 42 c4 -8 3
-26 0 -40 -7 -26 -7 -26 -109 -23 -98 3 -102 4 -105 26 -7 48 1 52 108 52 80
0 102 -3 106 -15z m234 -40 c15 -18 5 -65 -14 -65 -7 0 -21 9 -31 20 -17 19
-17 21 0 40 22 24 29 25 45 5z m541 -43 c41 -47 58 -67 134 -161 135 -167 177
-220 232 -293 32 -43 65 -77 74 -78 9 0 36 26 60 58 24 31 48 62 55 67 6 6 46
57 89 115 43 58 92 121 109 141 17 20 60 70 94 112 l64 77 189 0 189 0 -2
-807 -3 -808 -182 -3 c-177 -2 -182 -2 -194 19 -8 15 -10 150 -7 487 2 380 1
466 -10 470 -8 2 -20 -5 -29 -17 -13 -19 -41 -53 -116 -141 -12 -14 -80 -95
-151 -180 -71 -85 -136 -158 -145 -161 -12 -5 -39 20 -101 93 -47 55 -92 108
-100 118 -8 10 -33 39 -55 66 -144 174 -190 223 -207 224 -5 0 -8 -212 -8
-471 0 -305 -4 -477 -10 -490 -10 -18 -23 -19 -180 -19 -157 0 -170 1 -180 19
-11 21 -15 1556 -4 1585 5 14 31 16 184 16 l178 0 33 -38z m4204 20 c88 -31
148 -79 198 -156 68 -105 67 -99 67 -636 0 -461 -1 -488 -20 -538 -53 -139
-148 -224 -287 -256 -106 -24 -575 -23 -677 1 -145 35 -238 116 -289 253 -15
41 -17 101 -17 547 0 493 0 502 22 559 22 58 127 184 152 184 7 0 17 5 24 12
6 6 33 19 59 28 41 15 95 18 383 19 299 1 341 -1 385 -17z m992 -6 c26 -23 28
-29 31 -130 3 -83 1 -107 -9 -110 -27 -9 -424 -14 -446 -5 -21 8 -23 14 -23
94 0 91 15 146 47 164 11 6 88 11 195 11 172 0 178 -1 205 -24z m12 -398 c4
-13 14 -39 22 -58 9 -23 14 -80 14 -165 l0 -130 -255 -1 c-151 -1 -260 3 -267
9 -9 6 -13 42 -13 114 0 98 2 108 35 178 l35 75 210 0 c209 0 210 0 219 -22z
m-5784 -168 l0 -35 -203 -3 c-220 -3 -222 -2 -208 53 l6 25 203 -2 202 -3 0
-35z m5820 -525 l0 -260 -259 -3 c-143 -1 -263 1 -267 5 -4 5 -5 121 -2 260 5
217 8 253 22 255 8 2 126 3 261 3 l245 0 0 -260z m-6201 -21 c9 -22 8 -24 -9
-24 -8 0 -15 9 -15 20 0 24 15 27 24 4z m6561 -74 l0 -35 -109 0 -109 0 -2 25
c-4 45 10 51 119 48 l101 -3 0 -35z m-367 -254 c8 -5 12 -35 12 -90 0 -82 -1
-84 -35 -117 -43 -42 -62 -45 -252 -39 -133 4 -155 7 -180 26 -39 29 -73 100
-73 154 0 54 7 67 40 71 49 7 476 3 488 -5z m-5810 -38 l-3 -33 -202 -3 -203
-2 -6 24 c-3 14 -3 30 1 35 4 7 78 11 211 11 l205 0 -3 -32z m6177 21 c4 -5 4
-21 1 -35 -6 -23 -9 -24 -99 -24 -50 0 -97 4 -103 8 -17 12 -23 39 -11 51 14
14 203 15 212 0z m-178 -406 c54 -22 70 -85 34 -132 l-18 -24 -3114 -1 c-1713
-1 -3129 2 -3146 7 -38 9 -53 32 -53 79 0 43 8 54 50 72 31 14 386 15 3125 14
2526 -1 3096 -4 3122 -15z m-3571 -288 c14 -19 46 -44 70 -55 50 -22 56 -37
17 -45 -43 -9 -56 -19 -86 -63 -33 -49 -42 -52 -52 -14 -9 36 -43 72 -69 72
-12 0 -28 5 -36 10 -13 9 -12 13 9 30 13 11 31 20 41 20 20 0 45 26 54 58 10
30 21 28 52 -13z m3342 -18 c4 -32 -16 -44 -47 -27 -24 12 -27 30 -9 48 22 22
53 10 56 -21z m-1568 -16 c0 -17 -42 -77 -87 -123 -9 -10 -31 -18 -48 -18 -44
0 -95 -19 -95 -36 0 -14 4 -15 105 -35 74 -14 109 -38 135 -92 29 -60 26 -84
-10 -92 -16 -4 -32 -11 -35 -16 -10 -15 -52 -10 -70 8 -16 16 -16 17 0 29 30
22 14 48 -35 57 -51 9 -133 31 -200 55 -52 18 -100 61 -100 90 0 24 53 73 101
92 18 8 60 33 93 57 l58 43 94 0 c86 0 94 -2 94 -19z m952 -1 c50 -22 73 -44
63 -60 -3 -5 -15 -10 -26 -10 -10 0 -46 -14 -79 -32 -56 -31 -61 -32 -105 -20
-25 7 -54 12 -64 12 -21 0 -111 -76 -111 -94 0 -27 63 -50 142 -51 43 -1 79
-3 81 -6 2 -2 7 -16 10 -30 10 -40 -11 -52 -70 -40 -89 18 -118 28 -198 71
-71 38 -87 43 -144 42 -61 -1 -66 1 -112 41 -62 53 -125 75 -215 76 -39 1 -73
4 -77 7 -3 4 1 17 10 30 14 22 22 24 93 24 46 0 92 6 113 15 20 8 57 15 83 15
39 0 54 -6 90 -36 30 -24 44 -43 44 -60 0 -16 8 -27 23 -33 29 -11 37 -6 37
27 0 39 24 68 83 102 49 28 58 30 168 30 95 0 125 -4 161 -20z m-4956 -46 c8
-20 41 -70 73 -112 32 -43 87 -135 121 -207 66 -135 117 -222 151 -258 43 -46
79 -111 79 -142 0 -38 -33 -85 -60 -85 -25 0 -50 37 -50 74 0 23 -12 42 -53
80 -53 52 -108 135 -141 216 -51 126 -121 245 -166 285 -49 44 -62 102 -35
155 23 44 61 41 81 -6z m1098 20 c9 -3 16 -12 16 -20 0 -35 -142 -283 -238
-414 -83 -113 -252 -300 -272 -300 -13 0 -134 116 -205 196 -49 57 -89 117
-132 200 -33 66 -84 163 -112 217 -28 53 -51 104 -51 112 0 13 62 15 489 15
269 0 496 -3 505 -6z m617 -31 c65 -21 168 -79 176 -99 9 -24 -47 -123 -102
-179 -61 -63 -100 -83 -189 -101 -59 -12 -81 -11 -154 1 -126 22 -139 40 -67
93 31 22 55 32 82 32 36 1 83 27 83 47 0 13 -59 43 -86 43 -25 0 -102 -43
-169 -94 -142 -110 -211 -269 -176 -406 22 -87 22 -90 3 -90 -20 0 -35 27 -58
100 -17 56 -17 100 0 170 25 102 65 170 178 307 106 127 225 191 359 192 37 1
91 -7 120 -16z m1639 -32 l29 -28 -26 -37 c-31 -43 -46 -45 -78 -8 -30 34 -31
44 -2 76 28 33 42 32 77 -3z m2030 -59 c68 -22 103 -44 157 -99 67 -69 85
-120 80 -233 -5 -121 -19 -158 -88 -234 -75 -81 -167 -126 -257 -126 -129 0
-242 69 -301 185 -33 64 -36 77 -36 155 0 77 3 92 34 153 33 65 119 157 146
157 6 0 17 6 23 13 20 19 103 45 147 46 22 0 65 -7 95 -17z m-2562 -87 c31
-34 48 -45 60 -40 36 15 91 17 126 5 42 -13 96 -56 96 -74 0 -27 35 -46 72
-40 43 7 117 -18 146 -50 11 -11 27 -43 37 -69 10 -26 21 -50 25 -52 4 -3 28
3 53 12 61 22 119 7 147 -40 11 -18 19 -36 17 -41 -7 -22 -84 -50 -241 -90
l-60 -14 -44 39 c-71 62 -131 48 -176 -40 -16 -31 -17 -31 -97 -31 -76 0 -84
2 -116 30 -47 42 -90 41 -133 -4 l-34 -34 -165 4 c-168 4 -353 23 -471 49 -36
8 -77 16 -92 19 -81 17 -5 146 87 146 16 0 30 11 45 35 34 56 76 79 150 85 57
4 65 8 70 28 3 12 20 38 38 57 37 37 75 47 172 42 52 -2 55 -1 58 23 4 30 57
87 86 94 12 2 39 3 61 1 32 -3 48 -12 83 -50z m1360 -157 c15 -24 63 -77 106
-120 l79 -76 4 -89 c5 -102 15 -135 50 -160 70 -49 82 -97 43 -173 -42 -83
-179 -160 -285 -160 -35 0 -47 -6 -85 -46 -25 -25 -58 -53 -75 -62 -33 -18
-109 -41 -139 -42 -17 0 -16 3 6 33 53 69 62 97 63 192 0 61 -6 109 -19 149
-25 77 -18 173 16 236 38 71 72 119 87 125 19 7 26 -2 14 -17 -5 -7 -17 -37
-27 -66 -21 -60 -18 -167 8 -292 9 -41 19 -91 23 -110 10 -61 22 -65 62 -26
20 19 55 44 77 56 98 50 112 228 37 465 -11 36 -31 65 -69 102 -55 52 -67 86
-42 111 21 21 37 13 66 -30z m459 -120 c13 -12 23 -27 23 -34 0 -6 19 -28 43
-48 146 -126 164 -164 175 -369 4 -76 5 -140 3 -142 -2 -2 -28 7 -58 21 -31
13 -64 24 -74 24 -28 0 -96 39 -121 69 -65 77 -105 234 -79 304 14 36 42 43
64 16 14 -18 17 -39 16 -113 -2 -104 5 -125 59 -161 45 -31 69 -32 99 -3 19
17 23 32 23 78 0 106 -74 200 -193 245 -48 18 -107 77 -107 108 0 31 95 35
127 5z m-2810 -80 c26 -24 29 -38 10 -38 -14 0 -47 35 -47 50 0 16 12 12 37
-12z m-426 -74 c55 -34 79 -80 79 -149 0 -90 -44 -144 -131 -160 -44 -8 -64
11 -55 55 7 39 -9 39 -57 -1 -43 -35 -44 -59 -6 -108 36 -46 74 -61 152 -61
93 0 110 -5 130 -40 24 -41 21 -64 -14 -99 -36 -37 -81 -41 -119 -11 -27 21
-25 23 35 24 38 1 40 3 43 33 3 35 6 33 -83 49 -22 3 -56 7 -75 8 -32 1 -35
-1 -38 -31 -4 -37 -51 -83 -84 -83 -26 0 -83 35 -103 63 -23 33 -19 122 6 166
51 86 161 171 283 220 27 11 28 13 12 30 -29 32 -126 63 -173 55 -36 -5 -42
-4 -48 15 -10 33 11 50 68 53 85 5 140 -4 178 -28z m2359 -33 c0 -58 -18 -78
-105 -117 -236 -104 -474 -148 -870 -160 -121 -3 -228 -11 -237 -16 -13 -6
-18 -21 -18 -52 0 -40 3 -45 31 -55 88 -30 617 9 834 63 91 22 137 36 172 52
17 8 37 14 45 14 7 0 22 7 32 15 45 34 75 4 41 -41 -8 -10 -15 -25 -15 -32 0
-30 -89 -161 -151 -225 -115 -116 -187 -138 -529 -158 -234 -14 -702 -3 -742
17 -33 17 -167 147 -193 187 -9 15 -22 27 -28 27 -19 0 -47 33 -47 54 0 12
-18 40 -40 64 -22 23 -40 49 -40 58 0 9 -11 30 -26 46 -14 17 -28 44 -31 60
-5 28 -37 57 -84 78 -84 38 -120 71 -126 117 -6 49 5 59 38 30 35 -31 70 -47
219 -96 168 -56 308 -77 610 -92 200 -10 268 -9 460 5 280 21 342 30 530 82
93 26 200 77 232 111 28 30 38 21 38 -36z m-2785 -27 c0 -10 -8 -20 -17 -22
-18 -3 -26 27 -11 42 12 11 28 0 28 -20z m-66 -199 c0 -5 -17 -29 -39 -53
l-39 -44 -14 34 c-8 18 -21 39 -30 46 -15 13 -13 18 16 52 l32 38 36 -31 c21
-18 38 -36 38 -42z m385 -409 c-3 -8 5 -21 17 -30 26 -18 20 -31 -9 -22 -20 7
-37 49 -27 67 9 14 25 1 19 -15z"/>
<path d="M5524 7489 c-19 -21 -18 -21 5 -40 13 -10 33 -19 45 -19 36 0 52 -21
65 -83 15 -68 57 -123 105 -135 19 -5 39 -21 51 -40 11 -17 26 -31 32 -32 21
0 43 56 43 108 0 39 -5 53 -25 72 l-24 23 -31 -33 c-30 -32 -31 -32 -50 -15
-12 11 -20 31 -20 49 0 37 -30 105 -55 126 -14 12 -90 38 -116 40 -3 0 -14 -9
-25 -21z"/>
<path d="M2984 7105 c-5 -19 1 -36 22 -66 16 -21 35 -51 42 -64 16 -31 26 -31
46 -3 24 33 20 44 -31 104 -52 60 -70 66 -79 29z"/>
<path d="M2580 7020 c0 -59 80 -99 96 -48 5 17 0 27 -22 45 -37 29 -74 31 -74
3z"/>
<path d="M6764 6062 c-77 -62 -43 -191 51 -192 19 0 44 11 68 31 32 26 37 36
37 72 -1 85 -95 139 -156 89z"/>
<path d="M6497 5812 c-36 -37 -38 -108 -4 -140 60 -56 137 -40 171 36 20 43
15 64 -27 110 -32 34 -104 31 -140 -6z"/>
<path d="M6933 5760 c-37 -15 -56 -55 -51 -105 7 -59 37 -84 100 -85 40 0 50
4 72 31 55 65 22 156 -59 164 -22 3 -50 1 -62 -5z"/>
<path d="M5307 5663 c-22 -21 10 -66 75 -106 30 -19 142 -24 153 -8 5 9 -75
51 -98 51 -5 0 -29 16 -53 35 -41 34 -64 42 -77 28z"/>
<path d="M5903 4463 c-16 -25 -18 -61 -18 -425 0 -341 2 -399 15 -412 13 -13
55 -16 255 -16 217 -1 241 0 252 16 10 14 13 109 13 421 0 390 -1 404 -20 423
-19 19 -33 20 -250 20 l-230 0 -17 -27z m233 -368 c9 -14 23 -25 30 -25 23 0
16 -17 -21 -55 -35 -34 -55 -44 -55 -26 0 5 -14 22 -31 39 l-32 31 26 12 c14
6 28 20 30 30 7 27 34 24 53 -6z"/>
<path d="M7267 3868 c-53 -60 -60 -94 -23 -104 20 -5 31 1 58 32 18 21 41 47
51 57 26 26 18 61 -13 65 -20 2 -36 -9 -73 -50z"/>
<path d="M7332 3730 c-57 -76 -62 -103 -21 -108 20 -2 35 9 78 59 59 71 67
112 21 117 -21 2 -34 -9 -78 -68z"/>
<path d="M7146 3709 c-29 -34 -31 -42 -16 -69 7 -13 16 -17 28 -13 28 10 61
56 62 86 0 39 -40 37 -74 -4z"/>
<path d="M2500 2543 c-52 -20 -66 -99 -24 -132 57 -45 129 -12 129 58 0 23 -7
47 -15 56 -17 17 -68 27 -90 18z"/>
<path d="M2742 2534 c-28 -19 -30 -74 -4 -97 10 -10 35 -17 55 -17 30 0 39 5
52 30 37 72 -36 131 -103 84z"/>
<path d="M2290 2482 c-78 -25 -60 -128 21 -120 47 4 71 46 49 84 -16 29 -46
44 -70 36z"/>
<path d="M2661 2359 c-35 -34 -39 -63 -15 -97 22 -32 57 -43 94 -31 56 20 69
92 24 134 -36 33 -66 31 -103 -6z"/>
<path d="M2429 2301 c-35 -28 -34 -104 1 -131 46 -36 106 -17 130 39 30 73
-69 142 -131 92z"/>
<path d="M3597 2461 c-41 -26 -42 -29 -22 -51 29 -32 94 -22 109 16 8 20 -20
54 -43 53 -9 0 -28 -8 -44 -18z"/>
<path d="M7200 2278 c-53 -13 -100 -71 -100 -122 0 -102 96 -165 192 -127 32
12 78 80 78 114 0 88 -86 156 -170 135z"/>
<path d="M4900 2213 c-15 -6 -30 -23 -30 -35 0 -16 34 -38 59 -38 15 0 47 -13
71 -29 32 -21 49 -27 64 -21 42 15 28 56 -34 100 -27 19 -105 33 -130 23z"/>
<path d="M4560 2191 c-46 -25 -73 -55 -68 -78 4 -23 50 -29 68 -9 9 12 31 16
80 16 63 0 69 -2 104 -36 29 -28 42 -35 62 -30 37 10 40 32 9 71 -57 75 -178
106 -255 66z"/>
<path d="M4191 2070 c-43 -24 -91 -70 -91 -87 0 -7 11 -18 25 -25 20 -9 29 -7
51 8 95 68 164 71 243 12 27 -20 71 -24 88 -7 17 17 -28 72 -78 98 -54 29
-188 29 -238 1z"/>
<path d="M3110 1621 c-5 -11 -15 -42 -21 -71 -9 -43 -8 -55 5 -75 19 -28 41
-32 50 -9 3 9 6 44 6 79 0 90 -16 120 -40 76z"/>
</g>
</svg>
