 <svg  version="1.0" xmlns="http://www.w3.org/2000/svg"  width="300.000000pt" height="300.000000pt" viewBox="0 0 300.000000 300.000000"  preserveAspectRatio="xMidYMid meet">  <g transform="translate(0.000000,300.000000) scale(0.100000,-0.100000)" fill="#d53e0b" stroke="none"> <path d="M332 2654 c-65 -32 -126 -100 -149 -167 -17 -49 -18 -112 -18 -992 0 -880 1 -943 18 -992 24 -67 85 -135 150 -168 l53 -25 1125 2 1126 3 49 30 c27 17 65 53 85 79 71 94 69 57 69 1073 0 882 -1 913 -20 975 -25 80 -80 146 -152 182 l-52 26 -1116 0 -1116 0 -52 -26z m326 -232 c7 -5 42 -82 78 -172 35 -90 66 -165 68 -167 2 -2 29 69 61 158 32 88 64 167 72 175 10 9 36 14 79 14 107 0 104 10 104 -305 l0 -266 -86 -39 c-47 -22 -88 -40 -90 -40 -2 0 -5 44 -6 98 l-3 97 -45 -119 c-45 -119 -70 -153 -103 -140 -8 3 -32 49 -53 102 -67 177 -62 186 -63 -105 -1 -144 -4 -268 -7 -277 -5 -13 -22 -16 -80 -16 -61 0 -75 3 -83 19 -10 17 -12 171 -11 729 0 263 0 262 98 262 31 0 63 -4 70 -8z m729 0 c13 -8 66 -121 159 -335 l59 -139 5 225 c4 169 8 228 19 240 18 22 152 24 170 3 8 -9 11 -100 9 -312 l-3 -299 -130 -67 c-71 -37 -130 -66 -131 -65 -1 1 -33 74 -70 162 l-69 160 -3 -175 -3 -175 -72 -35 c-40 -19 -75 -36 -79 -38 -5 -2 -8 35 -8 82 l0 86 39 20 c70 35 89 85 50 134 -15 19 -30 26 -55 26 l-34 0 0 243 c0 176 3 246 12 255 13 13 116 16 135 4z m949 -18 c59 -25 138 -107 170 -177 l29 -62 3 -246 c4 -274 -4 -343 -46 -404 -43 -63 -98 -85 -209 -85 -119 0 -181 22 -245 87 -58 60 -78 105 -78 182 0 52 3 63 23 76 15 10 35 13 54 9 19 -4 42 0 63 11 49 25 60 15 60 -55 0 -55 3 -65 29 -91 22 -21 39 -29 65 -29 l36 0 0 153 c0 124 3 157 16 175 14 21 15 25 0 40 -11 13 -16 44 -18 112 -3 89 -4 95 -29 109 -31 17 -74 9 -88 -18 -8 -15 -15 -73 -20 -172 -1 -12 -9 -14 -32 -11 -38 6 -126 -33 -135 -60 -11 -37 -23 -16 -29 59 -18 191 21 312 122 374 79 49 176 58 259 23z m-1063 -569 c2 -11 -264 -125 -275 -118 -27 16 7 37 152 94 96 38 119 42 123 24z m535 -247 l-3 -163 -71 -3 c-50 -2 -74 1 -82 10 -14 17 -82 176 -82 192 0 10 211 124 233 125 4 1 6 -72 5 -161z m-688 -25 c0 -65 -4 -124 -9 -131 -5 -9 -30 -12 -87 -10 l-79 3 -3 92 -3 92 73 35 c112 53 108 56 108 -81z m330 17 c9 -17 6 -25 -15 -46 -56 -56 -235 -118 -235 -81 0 35 164 145 217 147 12 0 27 -9 33 -20z m211 -210 c60 -11 167 -60 192 -87 17 -19 16 -19 -158 -23 -16 0 -66 2 -109 6 -49 4 -100 2 -132 -5 -37 -9 -64 -9 -91 -2 -21 6 -51 13 -68 16 -29 6 -29 7 -10 22 94 70 240 98 376 73z m902 -30 c3 -11 18 -25 34 -31 l28 -12 -28 -11 c-15 -5 -30 -20 -33 -33 -8 -29 -24 -30 -31 -2 -3 11 -16 25 -29 30 -31 11 -31 25 0 33 13 3 26 15 29 26 7 26 23 26 30 0z m-1490 -46 c20 -13 37 -28 37 -33 0 -11 -65 -29 -127 -35 -50 -5 -139 -42 -177 -75 -16 -14 -20 -14 -24 -1 -3 8 -25 34 -49 58 l-44 42 28 11 c16 6 52 8 86 4 58 -6 62 -3 58 33 -3 22 69 14 115 -13 53 -31 72 -15 28 23 l-29 25 30 -7 c17 -4 47 -18 68 -32z m943 13 c-44 -35 -25 -51 27 -21 53 30 107 33 107 5 0 -29 18 -36 80 -33 73 3 93 -9 52 -34 -17 -9 -39 -33 -49 -51 -10 -18 -19 -33 -21 -33 -2 0 -22 13 -45 29 -54 37 -126 61 -182 61 -32 0 -45 4 -45 14 0 8 -3 21 -6 30 -6 16 56 55 91 56 17 0 16 -3 -9 -23z m-1528 -56 c-7 -9 -14 -18 -15 -20 -2 -2 -12 4 -22 13 -18 16 -18 19 -3 37 15 17 17 17 34 2 15 -13 16 -19 6 -32z m909 -56 c88 -39 93 -50 25 -51 -103 -1 -188 -68 -213 -166 l-13 -48 -138 0 -138 0 0 38 c0 20 9 55 19 77 73 161 282 230 458 150z m296 2 c29 -13 77 -45 108 -70 56 -46 139 -156 139 -183 0 -12 -23 -14 -131 -12 l-131 3 -17 43 c-18 48 -131 195 -169 220 -23 15 -23 16 -6 24 34 15 152 0 207 -25z m224 -13 c33 -20 59 -47 82 -87 19 -31 40 -57 47 -57 25 0 15 55 -16 98 -30 41 -30 42 -8 42 30 -1 99 -32 145 -67 49 -37 93 -109 93 -150 l0 -33 -133 0 -133 0 -13 38 c-26 70 -113 173 -201 235 -25 18 -25 18 32 14 41 -3 70 -12 105 -33z m-1211 -18 c40 -40 42 -54 10 -109 -13 -23 -27 -61 -31 -84 -7 -47 -13 -50 -54 -28 -92 47 -74 253 23 255 10 0 33 -15 52 -34z m1685 5 c27 -27 29 -35 29 -101 0 -69 -2 -74 -34 -106 -44 -44 -76 -46 -76 -4 0 35 -23 96 -46 121 -13 15 -13 21 -1 52 16 38 51 67 80 67 10 0 32 -13 48 -29z m-1439 -23 c-38 -40 -70 -110 -78 -172 l-7 -46 -68 0 c-68 0 -69 1 -69 26 0 65 78 155 173 200 72 33 87 31 49 -8z m556 -62 c46 -24 122 -118 122 -151 0 -3 -87 -5 -194 -5 l-194 0 10 38 c13 49 49 95 90 115 41 20 130 22 166 3z m-1005 -113 c-5 -13 -2 -15 11 -10 10 4 22 4 28 1 5 -4 -15 -15 -46 -25 -42 -15 -61 -17 -74 -9 -13 8 -14 10 -2 8 9 -2 17 2 18 7 2 8 55 42 69 45 1 0 -1 -8 -4 -17z m1970 1 c-4 -12 -2 -15 8 -12 8 3 13 10 12 16 -2 6 4 9 12 6 8 -4 13 -10 10 -14 -3 -5 3 -13 12 -19 30 -16 10 -21 -34 -8 -35 10 -40 15 -32 30 13 22 20 22 12 1z m-2043 -68 c0 -3 -5 -8 -12 -12 -7 -4 -8 -3 -4 4 7 12 16 16 16 8z m148 -8 c-5 -22 -42 -48 -50 -35 -4 7 -8 8 -8 4 0 -4 -6 -2 -14 5 -12 11 -9 15 18 25 41 15 57 16 54 1z m1872 3 c0 -4 -11 -6 -25 -3 -14 2 -25 6 -25 8 0 2 11 4 25 4 14 0 25 -4 25 -9z m-216 -93 c-8 -93 -32 -148 -80 -184 l-37 -29 -591 -3 c-325 -2 -606 0 -624 3 -40 7 -94 54 -115 98 -9 18 -19 67 -23 110 l-7 77 742 0 741 0 -6 -72z m114 57 c2 -2 1 -13 -3 -25 -5 -15 -10 -19 -17 -12 -6 6 -17 8 -24 5 -15 -5 -20 27 -7 40 6 6 42 0 51 -8z m137 5 c3 -5 1 -10 -4 -10 -6 0 -11 5 -11 10 0 6 2 10 4 10 3 0 8 -4 11 -10z m-2048 -7 c-4 -3 -10 -3 -14 0 -3 4 0 7 7 7 7 0 10 -3 7 -7z m230 -19 c-3 -4 -14 -3 -24 0 -15 6 -15 8 -3 16 16 10 39 -4 27 -16z m1936 8 c-3 -7 -9 -10 -12 -5 -3 4 -10 11 -15 15 -4 4 1 6 12 5 12 -1 18 -6 15 -15z m-23 -34 c0 -14 -19 1 -31 25 -12 22 -12 22 10 3 11 -11 21 -23 21 -28z m-1874 -45 c-4 -36 -11 -74 -17 -82 -7 -12 -8 -10 -4 9 5 27 13 93 14 123 1 9 4 17 7 17 4 0 4 -30 0 -67z m1919 37 c10 -11 16 -20 13 -20 -3 0 -13 9 -23 20 -10 11 -16 20 -13 20 3 0 13 -9 23 -20z m-186 -41 c9 -16 8 -19 -5 -19 -8 0 -13 -4 -9 -9 3 -5 1 -12 -5 -16 -5 -3 -10 1 -10 9 0 8 5 18 12 22 7 5 4 10 -10 15 -12 5 -22 15 -22 24 0 12 4 13 19 4 10 -7 23 -20 30 -30z m-1842 -6 c-4 -3 -7 0 -7 7 0 7 3 10 7 7 3 -4 3 -10 0 -14z m1712 -10 c1 25 18 13 23 -18 4 -19 1 -25 -11 -23 -22 4 -31 18 -30 48 l1 25 8 -25 c6 -18 8 -20 9 -7z m38 5 c-3 -8 -6 -5 -6 6 -1 11 2 17 5 13 3 -3 4 -12 1 -19z m-1760 -25 c-4 -3 -7 0 -7 7 0 7 3 10 7 7 3 -4 3 -10 0 -14z m-40 0 c-4 -3 -10 -3 -14 0 -3 4 0 7 7 7 7 0 10 -3 7 -7z"/> <path d="M480 960 c0 -7 3 -10 7 -7 3 4 3 10 0 14 -4 3 -7 0 -7 -7z"/> <path d="M536 878 c3 -5 10 -6 15 -3 13 9 11 12 -6 12 -8 0 -12 -4 -9 -9z"/> <path d="M853 815 c-3 -9 -1 -21 4 -26 5 -5 93 -8 214 -7 196 3 204 4 204 23 0 19 -8 20 -208 23 -182 2 -208 0 -214 -13z"/> <path d="M854 715 c-13 -32 6 -35 256 -35 201 0 249 3 253 14 13 32 -15 36 -260 36 -204 0 -245 -2 -249 -15z"/> <path d="M2300 860 c0 -5 5 -10 10 -10 6 0 10 5 10 10 0 6 -4 10 -10 10 -5 0 -10 -4 -10 -10z"/> </g> </svg> 