<?xml version="1.0" standalone="no"?>
<!DOCTYPE svg PUBLIC "-//W3C//DTD SVG 20010904//EN"
 "http://www.w3.org/TR/2001/REC-SVG-20010904/DTD/svg10.dtd">
<svg version="1.0" xmlns="http://www.w3.org/2000/svg"
 width="300.000000pt" height="300.000000pt" viewBox="0 0 300.000000 300.000000"
 preserveAspectRatio="xMidYMid meet">
<metadata>
Created by potrace 1.10, written by Peter Selinger 2001-2011
</metadata>
<g transform="translate(0.000000,300.000000) scale(0.050000,-0.050000)"
fill="#bc9494" stroke="none">
<path d="M2995 5347 c14 -6 20 -18 14 -28 -5 -9 -24 -12 -42 -5 -17 6 -37 3
-44 -7 -64 -93 -206 -115 -236 -37 -9 23 -18 25 -38 9 -17 -14 -47 -15 -92 -2
-57 16 -59 20 -18 21 34 1 43 8 28 23 -22 22 -87 6 -87 -23 0 -9 -13 -12 -29
-6 -16 7 -49 -2 -72 -19 -24 -16 -56 -25 -71 -19 -16 5 -28 1 -28 -10 0 -20
-110 -54 -128 -41 -4 4 -24 -7 -45 -25 -57 -49 -111 -63 -132 -34 -14 19 -16
17 -8 -7 9 -31 -65 -71 -112 -60 -8 2 -15 -6 -15 -17 0 -11 -36 -35 -80 -52
-44 -18 -80 -39 -80 -48 0 -8 -28 -21 -61 -27 -34 -7 -57 -21 -51 -30 21 -34
-48 -74 -71 -42 -17 25 -19 25 -12 -1 5 -16 -15 -53 -43 -82 -29 -28 -90 -94
-137 -147 -47 -52 -85 -90 -85 -83 0 7 -27 -12 -59 -41 -33 -29 -55 -60 -49
-70 6 -9 3 -17 -6 -17 -9 0 -38 -34 -66 -74 -27 -41 -70 -97 -95 -125 -85 -98
-95 -110 -90 -116 3 -3 5 -25 5 -50 -1 -36 -4 -39 -20 -15 -19 30 -22 24 -28
-45 -1 -14 -18 -37 -37 -51 -19 -15 -35 -44 -35 -65 0 -22 -9 -39 -20 -39 -11
0 -20 -17 -20 -39 0 -21 -9 -44 -20 -51 -11 -7 -16 -50 -11 -96 5 -46 4 -73
-2 -59 -15 36 -48 31 -34 -5 6 -16 2 -30 -9 -30 -11 0 -15 -19 -9 -43 8 -30 4
-39 -12 -29 -17 11 -18 1 -3 -37 10 -28 12 -51 4 -51 -8 0 -18 -87 -21 -194
-3 -107 -10 -201 -15 -210 -6 -9 -2 -16 8 -16 21 0 73 -102 66 -130 -3 -11 1
-14 9 -6 39 39 74 -46 36 -88 -25 -29 -27 -38 -7 -28 17 9 8 -3 -20 -26 -27
-23 -41 -41 -30 -42 11 0 7 -9 -9 -19 -17 -11 -30 -55 -31 -109 -2 -50 4 -86
13 -80 9 6 18 -17 20 -51 1 -33 4 -70 7 -81 3 -11 6 -30 8 -41 1 -12 10 -17
19 -11 10 6 17 -14 16 -44 -1 -29 8 -52 20 -50 12 2 17 -16 12 -45 -6 -28 0
-49 13 -49 12 0 21 -7 20 -15 -6 -36 4 -62 42 -105 22 -25 40 -62 40 -82 0
-20 16 -45 35 -56 19 -12 28 -21 19 -21 -8 -1 2 -20 25 -44 22 -24 36 -49 31
-57 -5 -7 27 -53 70 -100 44 -48 75 -91 70 -96 -4 -5 32 -48 81 -96 49 -47 89
-96 89 -108 0 -12 9 -17 20 -10 26 16 87 -43 71 -68 -6 -11 -1 -26 12 -34 14
-9 18 -6 9 9 -8 13 -5 23 5 23 11 0 26 -19 33 -41 8 -23 35 -50 62 -60 26 -10
48 -28 48 -40 0 -12 9 -16 20 -9 11 7 26 -2 32 -19 7 -17 23 -31 36 -31 14 0
42 -17 64 -37 58 -54 126 -87 149 -72 11 6 18 0 14 -14 -3 -14 4 -26 15 -27
56 -5 109 -35 97 -55 -7 -12 -4 -15 9 -8 11 8 27 4 34 -7 7 -11 21 -15 31 -9
11 6 19 0 19 -13 0 -14 6 -19 13 -11 8 7 33 2 55 -13 23 -14 72 -24 109 -23
56 1 62 -2 35 -22 -34 -25 -23 -49 23 -49 16 0 21 10 12 25 -9 16 -1 14 21 -4
30 -25 38 -25 55 0 16 23 19 20 12 -11 -9 -44 122 -60 180 -24 29 19 34 -9 6
-37 -12 -12 19 -17 85 -14 169 8 204 6 211 -15 11 -34 263 -25 263 9 0 21 18
26 70 20 39 -5 100 -13 137 -17 36 -5 79 -1 94 8 15 10 45 9 68 -2 38 -19 38
-18 6 8 -48 39 -44 60 7 43 85 -27 109 -24 142 18 27 34 39 38 59 18 20 -20
18 -25 -9 -25 -19 0 -34 -9 -34 -20 0 -26 26 -26 53 1 12 12 39 24 59 28 21 3
37 20 35 39 -2 26 3 29 25 10 21 -17 28 -17 28 2 0 13 13 19 30 13 17 -7 30
-2 30 10 0 12 13 16 29 10 15 -6 39 2 52 18 13 16 31 24 40 18 19 -11 100 29
124 61 8 11 15 13 15 4 0 -8 50 17 110 55 61 39 120 71 130 71 11 0 20 9 20
21 0 11 16 26 35 33 19 7 74 52 121 100 48 48 96 81 108 73 12 -7 17 -4 10 6
-7 11 21 51 61 89 40 37 65 55 56 40 -12 -19 -10 -24 6 -14 13 8 23 26 23 40
0 36 70 95 90 77 9 -8 11 5 5 29 -7 28 -2 43 12 40 13 -2 21 8 18 22 -4 15 3
21 15 14 11 -7 28 9 38 36 10 26 31 60 46 76 42 44 105 147 100 163 -2 8 4 15
15 15 19 0 52 78 45 105 -2 8 6 15 17 15 12 0 16 8 10 19 -6 10 -2 24 10 32
12 7 17 25 12 39 -6 15 3 32 19 38 20 8 25 3 16 -13 -8 -14 -7 -18 3 -9 9 8
20 34 23 58 4 24 17 55 29 69 12 15 18 49 12 76 -5 26 0 60 10 75 14 19 16 17
8 -9 -7 -19 -4 -35 5 -35 25 0 41 128 18 142 -10 7 -22 62 -26 124 -5 93 -47
229 -50 164 -1 -27 -39 34 -40 64 0 13 18 29 40 36 22 7 36 20 31 29 -6 9 5
29 23 44 29 23 32 23 18 -3 -10 -20 -5 -18 13 4 26 31 30 163 15 446 -3 71 -6
74 -20 30 -9 -27 -18 -41 -20 -30 -11 55 -8 101 8 113 22 16 -2 117 -28 117
-10 0 -14 -16 -7 -35 9 -29 7 -30 -10 -6 -11 16 -16 37 -10 46 32 51 21 118
-17 108 -30 -8 -33 -4 -17 16 24 28 8 89 -31 121 -35 29 -60 120 -27 99 16
-10 20 -7 11 8 -8 13 -23 18 -33 12 -11 -6 -20 -2 -21 10 -2 11 -5 30 -8 41
-3 11 -6 30 -7 41 -2 12 -11 17 -20 11 -10 -6 -34 27 -55 74 -20 46 -42 89
-48 94 -7 6 -34 42 -61 80 -26 39 -66 86 -89 107 -22 20 -26 29 -10 21 17 -8
-18 29 -76 82 -63 58 -101 108 -95 124 6 17 2 23 -11 15 -19 -12 -83 39 -183
146 -23 25 -59 45 -79 45 -20 0 -36 14 -36 31 0 17 -8 26 -18 20 -10 -6 -22 1
-28 16 -6 15 -72 57 -147 95 -75 37 -144 77 -152 88 -8 11 -15 13 -15 4 0 -25
-120 45 -120 72 -1 17 -5 17 -17 -2 -14 -22 -24 -21 -50 6 -18 18 -33 26 -33
18 0 -8 -20 4 -45 26 -45 41 -103 48 -150 19 -17 -10 -21 -5 -13 16 13 32 -5
37 -116 35 -35 -1 -50 8 -44 24 7 17 -10 26 -51 28 -34 1 -80 7 -102 14 -25 8
-55 2 -75 -16 -24 -20 -46 -24 -74 -11 -37 16 -37 17 5 9 25 -4 50 0 56 10 6
10 -52 17 -135 16 -80 0 -135 -6 -121 -11z m319 -178 c1020 -152 1826 -942
1976 -1939 38 -254 39 -243 -19 -281 -62 -41 -131 -9 -131 59 0 963 -892 1868
-1964 1994 -225 26 -256 40 -256 109 0 94 75 105 394 58z m-643 -58 c50 -76
13 -119 -144 -161 -855 -231 -1500 -916 -1609 -1705 -12 -85 -25 -185 -31
-221 -25 -178 -191 -111 -173 70 92 921 709 1687 1596 1982 299 99 318 101
361 35z m460 -240 c325 -97 439 -541 203 -788 -307 -320 -834 -110 -834 332 0
329 309 552 631 456z m-651 -218 c-205 -416 83 -839 550 -809 412 27 644 450
451 823 -79 154 -47 230 46 108 410 -537 -200 -1310 -817 -1037 -396 175 -536
757 -255 1067 80 88 96 -9 25 -152z m1200 118 c0 -41 -41 -61 -61 -30 -9 15
-12 34 -6 43 16 27 67 18 67 -13z m-1400 -72 c0 -44 -50 -53 -66 -11 -12 31
24 76 49 60 9 -6 17 -28 17 -49z m1580 2 c0 -10 27 -18 61 -17 77 3 104 -24
96 -96 -10 -81 -72 -88 -131 -15 -43 53 -46 54 -46 14 0 -51 -36 -69 -85 -44
-40 21 -47 117 -11 153 28 28 116 32 116 5z m-1712 -59 c52 -57 35 -147 -32
-170 -110 -38 -186 110 -92 177 58 41 82 39 124 -7z m-197 -233 c98 -129 109
-152 74 -164 -21 -7 -225 240 -225 273 0 55 60 12 151 -109z m2259 91 c7 -22
26 -40 41 -40 16 0 29 -9 29 -20 0 -11 14 -20 30 -20 41 0 38 -44 -5 -84 -19
-18 -47 -47 -61 -65 -17 -20 -59 -31 -123 -31 -76 0 -131 -18 -249 -81 -83
-45 -160 -76 -172 -69 -34 21 -6 44 142 122 113 60 148 90 181 156 78 155 161
214 187 132z m-280 -100 c0 -69 -70 -108 -126 -69 -55 39 -56 77 -3 130 51 51
129 14 129 -61z m-1722 -32 c15 -39 -1 -68 -39 -68 -18 0 -29 20 -29 50 0 56
48 69 68 18z m-395 -30 c95 -58 123 -219 42 -234 -28 -6 -35 7 -35 65 0 50 -9
71 -30 71 -21 0 -30 -21 -30 -71 0 -101 -67 -90 -76 11 -4 39 -15 79 -25 89
-88 90 33 144 154 69z m-233 -117 c0 -21 -8 -44 -18 -50 -24 -15 -69 42 -53
68 22 36 71 23 71 -18z m565 -124 c-14 -14 -35 1 -65 44 -37 51 -40 66 -18 80
36 22 114 -93 83 -124z m2365 103 c0 -20 -25 -32 -77 -36 -71 -6 -76 -10 -64
-57 11 -42 3 -53 -48 -73 -65 -24 -76 -51 -37 -90 36 -36 62 -29 50 15 -8 32
8 46 83 73 51 19 102 42 112 51 51 45 67 -5 28 -91 -39 -86 -381 -157 -409
-84 -15 40 -37 41 -76 1 -23 -23 -77 -33 -187 -35 l-155 -4 -6 55 c-4 30 2 55
13 55 11 0 33 5 50 12 20 7 32 -3 36 -34 11 -75 58 -72 52 4 l-5 65 260 105
c260 105 380 126 380 68z m-2472 -163 c29 -83 29 -390 0 -408 -39 -24 -53 31
-43 158 5 68 0 158 -12 201 -33 120 15 163 55 49z m-409 15 c214 -90 151 -425
-78 -420 -237 5 -303 307 -91 413 84 42 84 42 169 7z m730 -140 c66 -93 121
-174 121 -180 0 -42 -63 4 -138 100 -60 76 -93 105 -108 90 -14 -14 6 -54 63
-128 90 -116 97 -134 56 -134 -97 0 -237 328 -169 396 39 39 48 32 175 -144z
m-463 -97 c5 -165 1 -195 -25 -195 -17 0 -31 7 -32 15 -15 254 -8 386 20 380
25 -4 32 -44 37 -200z m1784 75 c0 -37 -11 -50 -41 -50 -49 0 -75 57 -37 82
49 31 78 19 78 -32z m-2424 -127 c5 -28 -4 -43 -25 -43 -20 0 -31 18 -31 52 0
62 47 55 56 -9z m3513 34 c223 -102 -88 -237 -339 -146 -106 38 -328 37 -379
-2 -29 -21 -88 -28 -230 -25 l-191 4 200 11 c262 14 188 43 -86 33 -126 -5
-216 -17 -235 -33 -26 -21 -37 -20 -64 8 -64 64 -2 79 430 108 228 15 456 34
505 43 138 25 332 25 389 -1z m-3314 -442 l194 -194 180 189 181 189 110 5
110 6 5 -505 6 -505 -151 0 -150 0 -1 255 0 255 -135 -146 c-163 -177 -151
-177 -313 1 l-133 145 5 -250 4 -250 -143 -6 -144 -6 0 498 c0 562 -9 514 99
514 77 0 93 -12 276 -195z m1461 28 c96 -88 223 -210 283 -271 145 -148 141
-152 141 155 0 314 -17 285 158 276 l142 -6 0 -499 0 -498 -116 0 -117 0 -268
248 -269 247 -6 -247 -5 -248 -150 0 -149 0 0 497 c0 273 6 503 14 510 50 50
172 -8 342 -164z m1685 145 c206 -60 359 -269 359 -490 -1 -452 -548 -671
-871 -349 -375 376 -1 990 512 839z m-3643 -1079 c620 -2090 3607 -2014 4142
106 36 142 180 162 180 25 0 -88 -132 -472 -213 -620 -1012 -1849 -3789 -1520
-4299 510 l-34 136 46 38 c74 60 117 14 178 -195z m3956 48 c52 -50 58 -82 19
-114 -40 -34 -146 88 -112 128 31 38 38 37 93 -14z m-306 -34 c14 -23 -9 -103
-30 -103 -10 0 -18 27 -18 60 0 57 25 80 48 43z m132 -32 c0 -33 -76 -81 -97
-61 -7 7 8 31 34 52 57 46 63 47 63 9z m-2720 -24 c366 -12 436 -24 408 -71
-6 -9 -147 -16 -314 -16 -207 -1 -381 -13 -544 -40 -365 -61 -477 -41 -435 77
29 84 45 88 274 76 122 -7 397 -18 611 -26z m1061 -8 c33 -62 100 -80 162 -44
73 43 117 21 117 -59 1 -82 14 -102 95 -144 72 -36 88 -108 35 -152 -16 -14
-30 -47 -30 -73 l0 -48 79 45 c63 37 84 41 104 21 33 -33 24 -39 -203 -160
l-190 -101 -50 40 c-154 124 -321 303 -296 319 111 71 246 -20 231 -155 -10
-86 9 -119 33 -56 68 177 -134 341 -307 249 -27 -15 -46 -9 -79 27 l-44 46 50
33 c28 18 67 33 86 33 52 1 93 32 77 58 -17 28 -100 9 -186 -42 -82 -50 -98
-38 -88 64 9 97 43 118 114 71 57 -37 107 -28 159 30 47 51 103 50 131 -2z
m742 -52 c46 -41 47 -102 4 -150 -66 -74 -187 -26 -187 73 0 97 110 143 183
77z m329 18 c55 -37 72 -106 39 -156 -50 -77 -160 -61 -193 26 -36 94 72 184
154 130z m664 -40 c8 -51 -27 -58 -80 -18 -27 21 -29 32 -11 50 36 36 84 19
91 -32z m-1245 -43 c-20 -33 -70 -27 -85 10 -17 44 37 74 71 39 15 -15 22 -37
14 -49z m977 59 c34 -13 47 -30 39 -50 -7 -20 0 -31 21 -31 18 0 32 9 32 20 0
37 42 21 102 -38 188 -189 -79 -498 -321 -372 -258 133 -139 572 127 471z
m-2288 -111 c14 -16 36 -30 50 -30 38 0 72 -51 58 -87 -7 -18 -25 -33 -40 -33
-15 0 -28 -9 -28 -20 0 -37 -130 -22 -165 20 -19 22 -46 40 -60 40 -54 1 -128
76 -90 91 20 7 48 3 63 -10 16 -12 54 -30 85 -40 31 -9 73 -23 92 -31 25 -10
35 -5 35 17 0 21 -11 28 -32 19 -37 -14 -69 27 -54 67 14 36 55 34 86 -3z
m-599 -53 c-25 -20 -53 -37 -63 -37 -33 0 -19 37 25 68 60 42 94 14 38 -31z
m1040 -81 c49 -46 186 -176 304 -290 248 -238 221 -229 400 -126 161 93 163
92 195 -38 28 -120 -6 -213 -101 -269 -33 -20 -77 -69 -98 -111 -119 -234
-801 -228 -801 8 0 15 -40 60 -90 101 -102 84 -138 173 -108 274 10 36 13 103
6 149 -16 109 20 212 107 309 86 95 78 95 186 -7z m-1338 -98 c-41 -72 -45
-72 -88 4 -33 58 -33 63 0 109 l35 48 43 -52 c40 -49 41 -55 10 -109z m543
102 c134 -106 107 -351 -48 -431 -101 -53 -195 -38 -271 42 -37 40 -67 60 -67
44 0 -15 11 -39 25 -54 20 -22 20 -24 -2 -11 -43 24 -86 149 -73 210 14 66
111 163 124 125 18 -49 68 -28 55 23 -23 92 159 129 257 52z m2026 5 c82 -108
-65 -249 -161 -154 -37 38 -41 131 -7 165 36 36 138 29 168 -11z m191 -18
c102 -92 -25 -240 -134 -158 -26 20 -30 30 -11 30 20 1 24 19 16 69 -16 99 51
130 129 59z m-2572 -18 c-43 -33 -83 -38 -99 -12 -17 28 10 43 76 42 59 0 60
-2 23 -30z m651 -165 c1 -21 5 -24 11 -9 21 51 52 24 40 -34 -7 -36 1 -90 21
-135 40 -93 50 -490 13 -527 -63 -64 -120 291 -58 360 30 33 32 48 11 112 -26
76 -59 65 -60 -21 0 -73 -73 -163 -167 -207 -90 -42 -213 -58 -213 -28 -1 29
268 265 302 265 55 0 69 99 19 134 -45 31 -35 76 12 58 17 -7 24 -3 16 9 -18
29 7 84 31 69 11 -7 21 -28 22 -46z m2198 -161 c126 -15 167 -71 66 -90 -85
-17 -429 -54 -486 -52 -275 8 -270 7 -276 54 -8 51 16 65 122 71 39 3 78 12
86 20 18 17 334 15 488 -3z m11 -202 c-50 -80 -666 -401 -692 -361 -52 84 110
194 186 126 39 -35 40 -35 27 6 -11 37 12 52 223 143 248 108 275 117 256 86z
m-205 -23 c-39 -39 -175 -46 -204 -10 -24 29 -14 32 100 32 90 0 120 -6 104
-22z m-248 -26 c29 -34 0 -47 -150 -65 -100 -12 -108 -9 -108 29 0 65 209 95
258 36z m-1895 -145 c40 -36 50 -107 16 -107 -71 0 -128 85 -86 127 20 19 30
16 70 -20z m500 -252 c-29 -29 -123 35 -123 82 0 66 29 67 87 2 39 -44 50 -70
36 -84z m1018 47 c-13 -25 -42 -42 -72 -42 -61 0 -63 33 -5 94 57 60 116 21
77 -52z"/>
<path d="M2790 4774 c-138 -67 -282 -244 -203 -249 13 -1 52 -13 87 -27 69
-28 181 2 156 42 -7 11 2 20 19 20 17 0 31 12 31 26 0 14 19 38 42 55 24 16
55 40 69 54 40 38 110 30 213 -25 116 -62 145 -64 116 -11 -72 135 -360 197
-530 115z m170 -14 c0 -11 -34 -33 -75 -50 -41 -17 -99 -60 -129 -96 -47 -56
-55 -60 -67 -28 -16 41 30 101 121 157 64 40 150 50 150 17z"/>
<path d="M2940 4613 c0 -17 31 -33 79 -40 100 -17 161 -90 161 -196 0 -90 48
-108 69 -25 33 133 -91 288 -231 288 -53 0 -78 -9 -78 -27z"/>
<path d="M2813 4287 c-59 -60 147 -136 255 -95 72 28 35 72 -49 58 -58 -10
-94 -5 -129 18 -55 36 -58 37 -77 19z"/>
<path d="M2649 4218 c-15 -25 86 -138 124 -138 54 0 42 37 -32 97 -50 40 -84
55 -92 41z"/>
<path d="M2984 4065 c-55 -5 -84 -16 -79 -31 10 -28 100 -42 167 -25 49 12 69
74 23 68 -14 -2 -64 -7 -111 -12z"/>
<path d="M4085 4397 c-14 -14 -25 -34 -25 -45 0 -11 11 -9 24 4 28 28 96 32
96 6 0 -9 -20 -31 -45 -49 -33 -22 -37 -31 -14 -32 51 -2 104 49 96 90 -9 46
-95 63 -132 26z"/>
<path d="M4158 4057 c-11 -20 -35 -38 -54 -39 -19 0 -23 -5 -10 -11 35 -14
178 29 206 63 20 25 13 29 -49 26 -48 -2 -80 -15 -93 -39z"/>
<path d="M3990 4020 c-14 -23 23 -80 52 -80 28 0 21 53 -10 79 -20 16 -32 17
-42 1z"/>
<path d="M1483 3979 c-75 -31 -39 -66 73 -72 116 -6 142 29 53 70 -59 27 -63
27 -126 2z"/>
<path d="M1411 3822 c-24 -39 67 -122 134 -122 70 0 141 35 124 61 -7 12 -25
12 -49 -1 -63 -34 -115 -23 -155 33 -28 37 -43 46 -54 29z"/>
<path d="M4298 3198 c-97 -104 -69 -299 51 -354 178 -81 367 75 313 258 -50
165 -250 218 -364 96z"/>
<path d="M2960 2194 c0 -18 29 -34 78 -41 98 -16 202 -126 202 -214 0 -39 10
-59 30 -59 68 0 37 158 -48 242 -42 43 -71 78 -63 78 21 0 105 -81 145 -140
27 -40 31 -42 23 -10 -25 102 -105 155 -248 165 -94 6 -119 2 -119 -21z"/>
<path d="M2571 2022 c-41 -44 -58 -84 -63 -155 -8 -91 -7 -93 15 -37 13 33 44
85 70 117 83 99 64 164 -22 75z"/>
<path d="M2748 1892 c-17 -45 5 -92 43 -92 23 0 30 15 25 53 -7 62 -50 86 -68
39z"/>
<path d="M2587 1869 c-41 -107 206 -340 274 -258 20 24 11 34 -47 58 -78 33
-154 117 -154 172 0 45 -58 68 -73 28z"/>
<path d="M2880 1772 c0 -30 49 -57 68 -37 26 26 10 65 -28 65 -22 0 -40 -13
-40 -28z"/>
<path d="M2978 1639 c-2 -5 -5 -32 -9 -59 -3 -28 -8 -60 -10 -70 -24 -119 65
-178 163 -109 92 66 67 199 -39 199 -30 0 -66 11 -79 24 -13 13 -25 20 -26 15z
m178 -165 c6 -31 -5 -36 -79 -30 -93 6 -110 37 -33 59 69 20 105 11 112 -29z"/>
<path d="M3406 1588 c-14 -37 35 -75 61 -49 22 22 2 81 -27 81 -12 0 -27 -14
-34 -32z"/>
<path d="M2580 1511 c0 -46 43 -128 72 -139 44 -17 48 17 13 95 -33 73 -85
100 -85 44z"/>
<path d="M2790 1459 c-8 -12 -5 -32 6 -43 27 -27 90 -4 79 29 -11 33 -68 43
-85 14z"/>
<path d="M3297 1418 c-29 -32 -80 -64 -115 -71 -69 -13 -86 -67 -21 -67 97 0
263 136 215 175 -19 15 -40 6 -79 -37z"/>
<path d="M2828 1297 c-7 -11 1 -34 17 -51 34 -34 142 -46 152 -17 10 29 -153
94 -169 68z"/>
<path d="M1705 2027 c-38 -16 -30 -41 17 -53 54 -14 98 3 98 38 0 27 -64 35
-115 15z"/>
</g>
</svg>
